<svg xmlns="http://www.w3.org/2000/svg" xmlns:xlink="http://www.w3.org/1999/xlink" width="1080" height="1080" viewBox="0 0 1080 1080"><defs><style>.a{clip-path:url(#b);}.b{fill:#02539a;}.b,.c,.d{fill-rule:evenodd;}.c{fill:#45d1fd;}.d{fill:rgba(69,209,253,0.85);}</style><clipPath id="b"><rect width="1080" height="1080"/></clipPath></defs><g id="a" class="a"><g transform="translate(89.79 0.163)"><path class="b" d="M148.153,85.215c-.4-.6-.956-1.305-1.466-1.961s-1.043-1.348-1.546-2.055a29.327,29.327,0,0,1-2.735-4.455,14.977,14.977,0,0,1-1.021-2.793,29.54,29.54,0,0,0-2.975,1.975,18.628,18.628,0,0,1-6.9,3.143,28.626,28.626,0,0,0,6.03,4.658,18.171,18.171,0,0,0,4.434,1.8,23.317,23.317,0,0,0,4.76.787,7.3,7.3,0,0,0,1.072-.043c.175-.015.285-.074.438-.095l.146-.066.086-.05.016-.008.007-.007v-.007h.007v-.072a2.55,2.55,0,0,0-.357-.752M107.28,81.089a16.932,16.932,0,0,1-.934,4.323,10.447,10.447,0,0,1-2.428,3.907,8.214,8.214,0,0,1-4.245,2.223,9.49,9.49,0,0,1-1.195.168,8.477,8.477,0,0,1-1.241.029,7.007,7.007,0,0,1-2.485-.62,9.964,9.964,0,0,1-3.741-3.149A17.954,17.954,0,0,1,88.8,84.019a18.889,18.889,0,0,1-2.116,3.813,10.266,10.266,0,0,1-3.579,3.193,6.487,6.487,0,0,1-2.451.692,8.74,8.74,0,0,1-2.449-.211,8.254,8.254,0,0,1-2.254-.926,9.633,9.633,0,0,1-1.809-1.531,12.424,12.424,0,0,1-2.29-3.857,20.94,20.94,0,0,1-1.115-4.184,23.191,23.191,0,0,1-.328-4.258,28.562,28.562,0,0,0,2.646,7.888A12.014,12.014,0,0,0,75.413,87.8a6.459,6.459,0,0,0,3.223,1.6,6.168,6.168,0,0,0,1.757.015,4.676,4.676,0,0,0,1.553-.583,7.938,7.938,0,0,0,2.524-2.545A23.217,23.217,0,0,0,87.4,79l1.452-6.5,1.4,6.518a21.512,21.512,0,0,0,2.967,7.341,7.422,7.422,0,0,0,2.618,2.494,5.518,5.518,0,0,0,1.627.546l.43.043c.153.008.313,0,.473,0a6.839,6.839,0,0,0,2.728-.524,6.427,6.427,0,0,0,1.611-.948,9.538,9.538,0,0,0,2.408-3.105,22.926,22.926,0,0,0,2.121-8.122,20.539,20.539,0,0,1,.044,4.338M69.521,129.562a15.209,15.209,0,0,1-3.989-2.406,18.844,18.844,0,0,1-5.192-7.669,29.9,29.9,0,0,1-1.268-4.432,33.054,33.054,0,0,1-.563-4.527,31.285,31.285,0,0,1,.694-8.989c.2,2.989.517,5.92.993,8.8a42.586,42.586,0,0,0,2.187,8.362,21.851,21.851,0,0,0,4.324,7.217,18.2,18.2,0,0,0,3.3,2.691,23.308,23.308,0,0,0,3.96,1.909,14.352,14.352,0,0,1-4.441-.955M52.77,92.389c-4.6.05-9.2.043-13.811-.044-2.3-.051-4.6-.109-6.9-.2l-6.906-.328c-4.6-.292-9.21-.627-13.811-1.218,4.6-.591,9.209-.926,13.811-1.218l6.906-.328c2.3-.088,4.6-.146,6.9-.2,4.608-.089,9.21-.095,13.811-.044,4.172.051,8.351.16,12.521.371.044-.926.095-1.851.161-2.777.1-1.4.167-2.791.292-4.191s.21-2.792.363-4.192.285-2.793.474-4.192c.19,1.4.336,2.793.475,4.192s.241,2.793.363,4.192.19,2.791.292,4.191.168,2.793.227,4.192L68,91.886l-1.415.072c-4.6.249-9.209.372-13.811.431M50.561,126.1a20.553,20.553,0,0,1-1.575-3.477,34.612,34.612,0,0,1-1.589-7.393,53.684,53.684,0,0,1-.256-7.487c.073-1.91.219-3.791.467-5.687-2.02-.124-4.04-.292-6.059-.517l-1.13-.131.095-.9c.117-1.108.292-2.224.437-3.339.176-1.115.35-2.231.6-3.339.24,1.108.415,2.224.591,3.339.1.737.21,1.48.306,2.216,2.355-.247,4.7-.416,7.058-.524l1.788-.088-.146,1.954c-.168,2.34-.292,4.767-.365,7.144s-.116,4.775-.079,7.152a67.391,67.391,0,0,0,.438,7.093,23.73,23.73,0,0,0,1.77,6.948,11.492,11.492,0,0,1-2.347-2.959M101.044,29.91c-3.033,0-5.5-.954-5.5-2.128s2.465-2.121,5.5-2.121,5.5.948,5.5,2.121-2.457,2.128-5.5,2.128M99.762,56.7c-3.041,0-5.5-.956-5.5-2.129s2.457-2.121,5.5-2.121,5.5.948,5.5,2.121S102.8,56.7,99.762,56.7M87.817,43.93c-3.041,0-5.506-.948-5.506-2.121s2.465-2.129,5.506-2.129,5.5.948,5.5,2.129-2.464,2.121-5.5,2.121M75.609,29.91c-3.041,0-5.506-.954-5.506-2.128s2.465-2.121,5.506-2.121,5.5.948,5.5,2.121-2.465,2.128-5.5,2.128M74.319,56.7c-3.033,0-5.5-.956-5.5-2.129s2.466-2.121,5.5-2.121,5.5.948,5.5,2.121S77.36,56.7,74.319,56.7m102.74,18.13c-11.493-7.873-25.027-6.561-34.493-1.539a13.4,13.4,0,0,0,1.269,2.7,33.765,33.765,0,0,0,2.851,4.031l1.6,1.946c.546.671,1.078,1.276,1.642,2.071l.21.313.189.372a4.054,4.054,0,0,1,.3.852,2.611,2.611,0,0,1-.081,1.167,2.091,2.091,0,0,1-.713,1,1.7,1.7,0,0,1-.447.292,4.479,4.479,0,0,1-.437.189,5.87,5.87,0,0,1-.8.19,9.307,9.307,0,0,1-1.465.086,24.271,24.271,0,0,1-5.242-.926,18.315,18.315,0,0,1-4.887-2.187,24.435,24.435,0,0,1-6.474-6.022c-8.3,1.539-17.006-.89-17.006-.89V8.951c0-4.557-.912-9.536-7.233-8.69s-3.764,19.08-8.022,18.59S98.178,1.238,89.428.874s-4.376,19.2-7.774,18.343S78.49,1.238,74.6,1.6,68.77,1.114,66.4,32.1,37.961,61.077,18.636,40.3C.012,20.273-5.013,23.9,5.859,82.489c1.321-.926,2.683-1.786,4.063-2.61q2.932-1.76,6.008-3.3a109.2,109.2,0,0,1,12.651-5.35A113.978,113.978,0,0,1,55.49,65.37a113.734,113.734,0,0,1,13.833-.335c2.3.168,4.609.233,6.891.553,1.146.146,2.3.242,3.436.431l3.405.576a87.52,87.52,0,0,1,25.821,9.062,160.749,160.749,0,0,0-26.39-5.088c-4.42-.453-8.852-.642-13.279-.7-2.209.051-4.427.015-6.636.161-2.209.05-4.412.261-6.621.423a165.986,165.986,0,0,0-26.208,4.607c-4.317,1.108-8.6,2.4-12.849,3.828-3.676,1.232-7.329,2.573-10.945,4.067q.568,3.084,1.2,6.372c10.88,56.616,50.316,46.112,50.316,46.112v56.681H66.4v-56.5c28.257-2.639,47.581-16.95,68.183-31.626s29.532-10.111,41.93-9.842,13.855-10.206.547-19.319" transform="translate(200.791 57.474)"/><path class="c" d="M.29,537.58,164.78,701.963,866.524.22H539.118Z" transform="translate(28.739 -0.383)"/><g transform="translate(0.463 185.296)"><g transform="translate(0 0)"><path class="b" d="M59.029,279.834s22.275-31.259,83.438-31.259,74.753,30.751,74.753,30.751L201.37,227.16,77.706,228.215Z" transform="translate(123.645 472.729)"/><path class="b" d="M82.151,230.69,66.363,274.333c9.674-9.185,33.794-26.227,79.511-26.227,42.347,0,62.21,14.424,70.649,23.81l-12.84-42.267ZM57.4,290.4l22.668-62.645,125.8-1.074L222.047,279.9l-2.764,1.034c-.136-.294-14.081-29.876-73.41-29.876-59.584,0-82.008,30.331-82.228,30.637Z" transform="translate(120.239 471.722)"/><path class="b" d="M209.351,261.4l-9.723-34.047-129.12.978L60.4,264.336c8.962-8.724,32.949-26.571,79.2-26.571,42.084,0,61.641,14.554,69.756,23.631" transform="translate(126.516 473.125)"/><path class="b" d="M72.714,230.1l-8.888,31.677C74.135,252.864,98.2,237.425,141,237.425c38.21,0,58.093,12.017,67.594,20.963l-8.356-29.257ZM59.729,268.551,71.111,228l.792-.009,129.929-.984,11.212,39.253-3.073-3.435c-7.768-8.69-27.063-23.284-68.971-23.284-46.435,0-70.338,18.367-78.459,26.274Z" transform="translate(125.11 472.405)"/><path class="b" d="M84.49,236.516h2.117v-8.687H84.49Z" transform="translate(176.976 474.131)"/><path class="b" d="M84.686,240.831l-.195-10.166,2.114-.034L86.8,240.8Z" transform="translate(176.977 480)"/><path class="b" d="M66,243.174l-4.342-8.182,1.866-.99,4.342,8.179Z" transform="translate(129.148 487.061)"/><path class="b" d="M82.343,238.812l-.656-11.521,2.114-.121.659,11.528Z" transform="translate(171.103 472.75)"/><path class="b" d="M68.893,248.593l-6.038-18.116,2-.675L70.9,247.924Z" transform="translate(131.66 478.263)"/><path class="b" d="M70.255,247.772l-4.908-19.345,2.046-.52L72.3,247.258Z" transform="translate(136.877 474.294)"/><path class="b" d="M70.9,245.906l-2.816-17.961,2.092-.325,2.813,17.958Z" transform="translate(142.616 473.693)"/><path class="b" d="M72.051,243.354l-1.4-15.523,2.107-.2,1.4,15.517Z" transform="translate(147.977 473.72)"/><path class="b" d="M73.53,242.054l-.569-14.393,2.114-.087.572,14.393Z" transform="translate(152.826 473.596)"/><path class="b" d="M75.534,239.608,75.342,227.7l2.114-.031.192,11.9Z" transform="translate(157.815 473.789)"/><path class="b" d="M77.827,238.877l-.473-11.218,2.111-.084.477,11.221Z" transform="translate(162.028 473.599)"/><path class="b" d="M80,238.518l-.573-10.912,2.114-.118.573,10.909Z" transform="translate(166.371 473.418)"/><path class="b" d="M63.572,247.139l-2.835-8,1.99-.7,2.835,8Z" transform="translate(127.222 496.344)"/><path class="b" d="M64.846,245.525l-2.689-7.254,1.981-.746,2.692,7.266Z" transform="translate(130.195 494.44)"/><path class="b" d="M66.216,244.71l-2.553-7.443,2-.7,2.553,7.446Z" transform="translate(133.351 492.442)"/><path class="b" d="M67.527,244.377l-2.268-8.188,2.039-.557,2.268,8.182Z" transform="translate(136.692 490.475)"/><path class="b" d="M68.572,243.437l-1.792-8.445,2.064-.449,1.792,8.448Z" transform="translate(139.881 488.194)"/><path class="b" d="M69.874,242.346l-1.42-7.811,2.083-.378,1.42,7.808Z" transform="translate(143.384 487.388)"/><path class="b" d="M71.3,243.158l-1.167-9.7,2.1-.248L73.4,242.9Z" transform="translate(146.903 485.4)"/><path class="b" d="M72.777,241.742l-.851-8.736,2.1-.2.854,8.749Z" transform="translate(150.659 484.554)"/><path class="b" d="M74.84,241.792l-.99-9.306,2.1-.229,1,9.309Z" transform="translate(154.689 483.406)"/><path class="b" d="M76.1,241.283l-.285-9.29,2.117-.068.282,9.293Z" transform="translate(158.803 482.71)"/><path class="b" d="M77.578,241.31l-.105-9.931,2.111-.009.108,9.918Z" transform="translate(162.277 481.548)"/><path class="b" d="M79.2,240.7h2.117v-9.3H79.2Z" transform="translate(165.895 481.6)"/><path class="b" d="M81.08,241.035,80.938,231l2.117-.028L83.193,241Z" transform="translate(169.535 480.712)"/><path class="b" d="M82.911,239.95l-.279-8.746,2.117-.062.275,8.742Z" transform="translate(173.086 481.072)"/><path class="b" d="M107.707,242.5l-1.872-.972,4.345-8.331,1.875.975Z" transform="translate(221.686 485.371)"/><path class="b" d="M89.032,238.739l-2.117-.112.659-11.546,2.117.118Z" transform="translate(182.057 472.564)"/><path class="b" d="M106.046,248.021l-2-.662,6.035-18.32,2.012.656Z" transform="translate(217.935 476.663)"/><path class="b" d="M103.954,247.255l-2.052-.514,4.914-19.512,2.042.507Z" transform="translate(213.448 472.876)"/><path class="b" d="M102.035,244.777l-2.094-.294,2.456-17.438,2.1.294Z" transform="translate(209.341 472.488)"/><path class="b" d="M99.722,242.322l-2.1-.229,1.7-14.953,2.1.232Z" transform="translate(204.487 472.687)"/><path class="b" d="M97.783,241.668l-2.114-.077.569-14.421,2.117.081Z" transform="translate(200.393 472.75)"/><path class="b" d="M95.524,239.289l-2.114-.034.2-11.908,2.111.028Z" transform="translate(195.66 473.121)"/><path class="b" d="M93.425,238.646l-2.117-.08.477-11.237,2.111.087Z" transform="translate(191.258 473.083)"/><path class="b" d="M91.314,238.365l-2.111-.121.566-10.927,2.117.115Z" transform="translate(186.85 473.058)"/><path class="b" d="M109.2,246.393l-2-.7,2.835-8.1,2,.7Z" transform="translate(224.547 494.574)"/><path class="b" d="M107.816,244.81l-1.984-.727,2.692-7.347,1.981.721Z" transform="translate(221.68 492.788)"/><path class="b" d="M106.363,244.049l-2-.675,2.553-7.542,2,.675Z" transform="translate(218.605 490.896)"/><path class="b" d="M104.887,243.773l-2.039-.557,2.265-8.269,2.042.557Z" transform="translate(215.429 489.04)"/><path class="b" d="M103.528,242.922l-2.055-.5,2.039-8.513,2.052.5Z" transform="translate(212.549 486.868)"/><path class="b" d="M102,242.924l-2.086-.374,1.748-9.476,2.077.381Z" transform="translate(209.28 485.117)"/><path class="b" d="M100.4,242.643l-2.089-.309,1.42-9.59,2.1.313Z" transform="translate(205.927 484.424)"/><path class="b" d="M98.724,241.841l-2.107-.229,1.009-9.482,2.1.232Z" transform="translate(202.378 483.14)"/><path class="b" d="M96.757,241.447l-2.111-.232,1-9.327,2.1.226Z" transform="translate(198.249 482.633)"/><path class="b" d="M95.02,241.46l-2.111-.1.5-9.949,2.111.1Z" transform="translate(194.613 481.636)"/><path class="b" d="M91.308,241.391h2.117V230.974H91.308Z" transform="translate(191.257 480.718)"/><path class="b" d="M89.614,240.513h2.114v-9.3H89.614Z" transform="translate(187.709 481.221)"/><path class="b" d="M89.944,240.928l-2.114-.034.142-10.042,2.117.034Z" transform="translate(183.974 480.463)"/><path class="b" d="M86.14,240.6l-.071-9.838,2.114-.022.074,9.85Z" transform="translate(180.283 480.23)"/><path class="b" d="M261.464,41.112l-18.159.04.888-.86L240.8,143.446c-.39,17.191-1.56,34.413-2.479,51.572L236.89,220.8,234.7,246.521c-1.637,17.147-2.565,34.354-4.778,51.452L223.3,349.257l-1.656,12.83-2.306,12.694-4.729,25.364-4.729,25.364c-1.535,8.393-3.045,17.024-5.351,25.342-4.181,16.758-8.13,33.561-13.644,49.935-2.661,8.207-4.9,16.566-7.907,24.655l-8.962,24.3c-2.822,8.164-6.359,16.04-9.708,24-3.457,7.9-6.564,15.972-10.3,23.748-7.427,15.588-14.721,31.241-23.061,46.37-7.864,15.371-16.813,30.164-25.59,45.024L91.6,710.833l-14.458,21.5c-9.884,14.158-20.084,28.109-30.761,41.707-10.757,13.579-21.737,26.818-33.725,39.6l-2.98-6.985,97.571-.73-2.974,1.5,0-.009c9.646-13.152,18.5-27.279,27.029-41.419,8.352-14.3,16.414-28.771,23.888-43.557,7.594-14.746,14.523-29.8,21.328-44.916,6.5-15.257,12.933-30.526,18.6-46.12q4.558-11.577,8.365-23.427c2.6-7.863,5.366-15.69,7.836-23.606,4.49-15.962,9.677-31.745,13.3-47.939l5.908-24.172,4.809-24.373c3.562-16.169,5.471-32.763,8.031-49.189,2.442-16.346,3.478-33,5.292-49.493,1.891-16.507,2.476-33.153,3.72-49.725q1.8-24.876,2.816-49.805c.709-16.615,1.653-33.23,2.172-49.846,1.151-33.251,2.157-66.5,2.794-99.764q1.017-49.479,1.306-98.955Zm1.714-.854q.084,49.91-.588,99.849c-.393,33.274-1.151,66.55-2.061,99.829-.4,16.64-1.222,33.261-1.813,49.9q-.8,24.951-2.448,49.883c-1.13,16.609-1.594,33.271-3.37,49.842-1.693,16.6-2.606,33.2-4.948,49.8-2.451,16.461-4.215,32.986-7.7,49.372l-4.67,24.624-5.759,24.367c-3.531,16.321-8.631,32.231-13.038,48.335-2.423,7.981-5.146,15.866-7.712,23.816q-3.751,11.958-8.244,23.637c-5.586,15.736-11.952,31.179-18.395,46.593-6.74,15.269-13.613,30.492-21.155,45.414-7.424,14.966-15.452,29.625-23.779,44.124-8.557,14.409-17.271,28.591-27.205,42.341l-1.077,1.473-1.9.037-97.562,1.38L0,815.011l6.787-7.121c11.645-12.23,22.767-25.385,33.469-38.7,10.677-13.375,20.9-27.128,30.807-41.1l14.508-21.217,13.811-21.666c8.829-14.681,17.825-29.285,25.747-44.482,8.4-14.947,15.752-30.43,23.25-45.844,3.772-7.7,6.917-15.671,10.407-23.507,3.386-7.867,6.963-15.659,9.822-23.739l9.083-24.052c3.054-8.009,5.332-16.287,8.043-24.411,5.6-16.225,9.649-32.884,13.935-49.487,2.355-8.26,3.868-16.566,5.505-25.076l4.917-25.339,4.927-25.324,2.4-12.673,1.745-12.747,6.994-51.015c2.34-17.008,3.395-34.187,5.162-51.275l2.38-25.672,1.64-25.735c1.052-17.172,2.346-34.276,2.875-51.483l4.19-103.129v.006l.894-.863,19.868.043Z" transform="translate(0 79.367)"/><path class="b" d="M34.453,250.171h72.139v-4.227H34.453Z" transform="translate(72.166 512.075)"/><path class="b" d="M20.835,270.663h82.971v-4.227H20.835Z" transform="translate(43.641 554.999)"/><path class="b" d="M4.573,420.239a2.112,2.112,0,0,1-.919-4.014l135.555-65.538L99.316,290.341a2.115,2.115,0,0,1,.631-2.949l95.13-60.247a2.115,2.115,0,1,1,2.259,3.577l-93.3,59.089,40.029,60.568a2.067,2.067,0,0,1,.279,1.711,2.135,2.135,0,0,1-1.12,1.346L5.492,420.026a2.038,2.038,0,0,1-.919.214" transform="translate(5.145 472.01)"/><path class="b" d="M64.48,418.466a2.1,2.1,0,0,1-1.779-.981L20.775,351.959a2.084,2.084,0,0,1-.275-1.649,2.159,2.159,0,0,1,1.009-1.334l110.751-62.481L94.436,230.451a2.111,2.111,0,0,1,3.5-2.361l39.107,57.957a2.1,2.1,0,0,1-.712,3.014L25.54,351.56,66.254,415.21a2.117,2.117,0,0,1-.634,2.928,2.164,2.164,0,0,1-1.139.328" transform="translate(42.804 472.728)"/><path class="b" d="M23.141,418.709l-3.5-2.37c.808-1.2,81.445-121.063,105.593-189.4l3.989,1.389C104.9,297.2,23.962,417.5,23.141,418.709" transform="translate(41.147 472.256)"/><path class="b" d="M110.677,198.557H59.024a1.478,1.478,0,1,1,0-2.955h51.653a1.478,1.478,0,1,1,0,2.955" transform="translate(120.529 406.626)"/><path class="b" d="M110.02,185.922h-46.9a1.479,1.479,0,0,1,0-2.959h46.9a1.479,1.479,0,1,1,0,2.959" transform="translate(129.116 380.154)"/><path class="b" d="M108.636,173.455H66.493a1.479,1.479,0,1,1,0-2.958h42.143a1.479,1.479,0,1,1,0,2.958" transform="translate(136.179 354.04)"/><path class="b" d="M55.139,304.81a1.477,1.477,0,0,1-.687-2.788l61.4-32.113L79.7,232.494a1.5,1.5,0,0,1,.161-2.206l50.576-39.011L96.22,163.644a1.476,1.476,0,1,1,1.86-2.293l35.669,28.8a1.439,1.439,0,0,1,.548,1.17,1.48,1.48,0,0,1-.569,1.157L82.978,231.628l36.378,37.646a1.486,1.486,0,0,1-.381,2.343L55.823,304.643a1.45,1.45,0,0,1-.684.167" transform="translate(112.391 334.192)"/><path class="b" d="M100.891,306.138a1.441,1.441,0,0,1-.95-.34L58.457,271.181a1.481,1.481,0,0,1,.127-2.367l56.45-37.634-34-38.1a1.449,1.449,0,0,1-.365-1.173,1.466,1.466,0,0,1,.653-1.046l44.919-29.6a1.481,1.481,0,0,1,1.631,2.473L84.378,192.382l34,38.1a1.454,1.454,0,0,1,.371,1.17,1.548,1.548,0,0,1-.647,1.046L61.877,270.181l39.964,33.339a1.481,1.481,0,0,1-.95,2.618" transform="translate(121.334 334.186)"/><path class="b" d="M66.665,307.468l-4.048-1.238c.272-.888,26.973-88.99,33.218-146l4.2.461c-6.291,57.4-33.1,145.882-33.373,146.779" transform="translate(131.159 332.53)"/><path class="b" d="M71.682,140.449h32.766v-2.117H71.682Z" transform="translate(150.148 286.666)"/><path class="b" d="M72.749,132.764h30.386v-2.117H72.749Z" transform="translate(152.383 270.568)"/><path class="b" d="M73.56,125.075h29.99v-2.111H73.56Z" transform="translate(154.081 254.475)"/><path class="b" d="M74.114,117.4h28.938v-2.117H74.114Z" transform="translate(155.242 238.378)"/><path class="b" d="M78.385,44.473H98.466V42.362H78.385Z" transform="translate(164.188 85.642)"/><path class="b" d="M78.342,47.976H98.29V45.859H78.342Z" transform="translate(164.098 92.967)"/><path class="b" d="M78.171,51.991H98.518v-2.12H78.171Z" transform="translate(163.74 101.371)"/><path class="b" d="M78.085,56.6H98.432V54.485H78.085Z" transform="translate(163.56 111.035)"/><path class="b" d="M77.829,61.036H99.495V58.925H77.829Z" transform="translate(163.023 120.336)"/><path class="b" d="M77.659,66.249H99.591V64.132H77.659Z" transform="translate(162.667 131.243)"/><path class="b" d="M77.274,71.966h23.519V69.855H77.274Z" transform="translate(161.861 143.23)"/><path class="b" d="M77.1,77.436h23.253V75.319H77.1Z" transform="translate(161.503 154.675)"/><path class="b" d="M76.89,83.016h23.782V80.9H76.89Z" transform="translate(161.056 166.364)"/><path class="b" d="M76.719,88.566H100.5V86.455H76.719Z" transform="translate(160.698 178.001)"/><path class="b" d="M76,95.091h24.838V92.974H76Z" transform="translate(159.182 191.657)"/><path class="b" d="M75.824,102.249h24.438v-2.117H75.824Z" transform="translate(158.824 206.65)"/><path class="b" d="M75.14,109.62h26.425v-2.111H75.14Z" transform="translate(157.391 222.102)"/><path class="b" d="M71.409,373.71l-1.253-1.7,35.028-25.8-28.523-23.77,31.572-23.977L81.863,274.73,109.9,250.9,86.48,228.013l24.983-21.469-22.43-20.316,23.535-17.553L90.924,151.429l21.7-16.934L92.19,117.053l20.675-16.12L93.69,87.555l18.5-14.969L94.545,60.279l17.9-10.426-16.38-8.362.959-1.885,19.827,10.132L98.462,60.452l17.24,12-18.5,14.969,19.221,13.409-20.9,16.284,20.431,17.435L94.331,151.441l21.7,17.284L92.354,186.4l22.3,20.2L89.612,228.116l23.433,22.907L85.072,274.774,111.547,298.6,80.055,322.527,108.61,346.31Z" transform="translate(146.95 79.87)"/><path class="b" d="M92.493,134.269l21.8-16.51L94.352,101.113l18.361-13.74L95.7,73.125l17.927-12.71L95.64,49.987l16.943-8.752-.975-1.885L92.951,49a12.093,12.093,0,0,1-.405,1.64L109.717,60.6,92.239,72.992l17.07,14.285L90.942,101.023,110.9,117.67,89.1,134.186l21.019,17.584-22.2,17.175,20.533,17.092L85.561,205.762l22.21,23L82.528,251.225l23.621,24.284-28.595,23.56L104.3,323.429,71.387,346.308l30.464,27.053,1.408-1.588L74.791,346.509l31.8-22.093,1.089-.749-26.9-24.519,27.592-22.736.891-.733-23.68-24.333,25.228-22.464L88.634,205.91,111.723,186,91.295,169l22.189-17.175Z" transform="translate(149.53 79.333)"/><path class="b" d="M13.6,280.678h87.73v-4.224H13.6Z" transform="translate(28.496 575.983)"/><path class="b" d="M27.837,259.841H107.1V255.62H27.837Z" transform="translate(58.308 532.343)"/><path class="b" d="M40.02,239.981h68.169v-4.23H40.02Z" transform="translate(83.827 490.724)"/><path class="b" d="M84.61,39.409l19.871-.043.891.867v-.006l4.19,103.126c.526,17.206,1.823,34.31,2.875,51.486l1.637,25.732,2.383,25.673c1.764,17.089,2.822,34.27,5.162,51.278l6.994,51.015,1.745,12.747,2.409,12.669,4.92,25.324,4.921,25.342c1.637,8.51,3.153,16.813,5.505,25.073,4.283,16.6,8.337,33.261,13.932,49.487,2.711,8.124,4.992,16.4,8.046,24.411l9.083,24.052c2.859,8.08,6.437,15.872,9.819,23.739,3.491,7.839,6.638,15.808,10.41,23.507,7.5,15.417,14.854,30.9,23.247,45.847,7.929,15.2,16.925,29.8,25.751,44.483l13.811,21.666L276.721,728.1c9.909,13.972,20.131,27.722,30.807,41.1,10.7,13.313,21.823,26.469,33.469,38.7l6.787,7.121-9.761-.136L240.458,813.5l-1.894-.04-1.08-1.473c-9.934-13.75-18.645-27.932-27.205-42.338-8.325-14.5-16.352-29.161-23.776-44.127-7.545-14.919-14.412-30.142-21.155-45.414-6.443-15.411-12.806-30.857-18.395-46.59q-4.5-11.693-8.247-23.64c-2.565-7.95-5.289-15.832-7.713-23.813-4.407-16.108-9.5-32.017-13.038-48.338L112.2,513.358l-4.673-24.624c-3.478-16.386-5.242-32.908-7.693-49.372-2.343-16.6-3.256-33.2-4.948-49.8-1.776-16.572-2.241-33.233-3.373-49.842-1.068-16.615-1.916-33.249-2.448-49.883-.588-16.64-1.414-33.261-1.81-49.9-.91-33.28-1.671-66.556-2.064-99.83q-.65-49.915-.585-99.849Zm1.708,1.7q.279,49.479,1.306,98.955c.638,33.264,1.643,66.516,2.794,99.765.52,16.618,1.467,33.23,2.172,49.849q.979,24.932,2.813,49.8c1.247,16.572,1.832,33.218,3.723,49.725,1.81,16.488,2.847,33.147,5.289,49.493,2.562,16.426,4.472,33.02,8.037,49.19l4.809,24.373,5.9,24.172c3.624,16.194,8.814,31.977,13.3,47.942,2.473,7.913,5.236,15.743,7.836,23.606q3.82,11.842,8.365,23.424c5.663,15.594,12.1,30.866,18.6,46.12C178.073,692.64,185,707.7,192.6,722.442c7.474,14.786,15.535,29.26,23.885,43.557,8.529,14.139,17.383,28.267,27.032,41.419l0,.012-2.971-1.5,97.571.733-2.983,6.985c-11.989-12.781-22.975-26.023-33.725-39.6-10.68-13.6-20.876-27.552-30.761-41.71l-14.461-21.5-13.756-21.947c-8.78-14.861-17.726-29.653-25.593-45.024-8.34-15.127-15.631-30.783-23.064-46.37-3.735-7.777-6.842-15.845-10.3-23.748-3.348-7.963-6.882-15.838-9.7-24l-8.959-24.3c-3.011-8.092-5.249-16.451-7.913-24.658-5.512-16.374-9.46-33.178-13.638-49.935-2.306-8.315-3.819-16.946-5.354-25.339l-4.732-25.367-4.726-25.364-2.306-12.691-1.656-12.833-6.629-51.285c-2.213-17.1-3.138-34.3-4.775-51.449L110.9,220.8l-1.439-25.778c-.916-17.157-2.089-34.382-2.476-51.572L103.587,40.291l.894.86Z" transform="translate(177.195 79.367)"/><path class="b" d="M111.877,250.171h72.139v-4.227H111.877Z" transform="translate(234.342 512.075)"/><path class="b" d="M122,270.663h82.971v-4.227H122Z" transform="translate(255.536 554.999)"/><path class="b" d="M297.641,420.233a2.017,2.017,0,0,1-.916-.214L158.991,353.432a2.121,2.121,0,0,1-1.117-1.346,2.056,2.056,0,0,1,.279-1.711l40.026-60.568-93.3-59.089a2.115,2.115,0,1,1,2.259-3.577l95.13,60.247a2.115,2.115,0,0,1,.631,2.949l-39.89,60.346,135.555,65.539a2.113,2.113,0,0,1-.922,4.014" transform="translate(217.618 472.017)"/><path class="b" d="M184.333,418.463a2.18,2.18,0,0,1-1.139-.328,2.12,2.12,0,0,1-.634-2.928l40.716-63.651-110.795-62.5a2.1,2.1,0,0,1-.709-3.014l39.1-57.957a2.111,2.111,0,0,1,3.5,2.361l-37.82,56.044,110.748,62.481a2.159,2.159,0,0,1,1.009,1.334,2.082,2.082,0,0,1-.272,1.649l-41.929,65.526a2.1,2.1,0,0,1-1.779.981" transform="translate(233.36 472.731)"/><path class="b" d="M220.671,418.709c-.82-1.21-81.758-121.505-106.085-190.386l3.989-1.389c24.148,68.351,104.785,188.207,105.593,189.4Z" transform="translate(240.016 472.256)"/><path class="b" d="M147.585,198.557H95.933a1.478,1.478,0,1,1,0-2.955h51.652a1.478,1.478,0,1,1,0,2.955" transform="translate(197.839 406.626)"/><path class="b" d="M140.266,185.922h-46.9a1.479,1.479,0,0,1,0-2.959h46.9a1.479,1.479,0,0,1,0,2.959" transform="translate(192.475 380.154)"/><path class="b" d="M133.676,173.455H91.535a1.479,1.479,0,1,1,0-2.958h42.141a1.479,1.479,0,1,1,0,2.958" transform="translate(188.627 354.04)"/><path class="b" d="M169.089,304.816a1.462,1.462,0,0,1-.687-.167L105.25,271.623a1.486,1.486,0,0,1-.381-2.343l36.378-37.646L90.5,192.48a1.492,1.492,0,0,1-.572-1.157,1.459,1.459,0,0,1,.551-1.17l35.672-28.8a1.463,1.463,0,0,1,2.08.214,1.479,1.479,0,0,1-.223,2.08L93.787,191.283l50.576,39.011a1.5,1.5,0,0,1,.161,2.207l-36.149,37.414,61.4,32.113a1.477,1.477,0,0,1-.684,2.788" transform="translate(188.36 334.186)"/><path class="b" d="M116.54,306.138a1.481,1.481,0,0,1-.95-2.618l39.964-33.339L99.333,232.7a1.542,1.542,0,0,1-.65-1.046,1.463,1.463,0,0,1,.368-1.17l34-38.1L89.563,163.734a1.481,1.481,0,0,1,1.631-2.473l44.921,29.6a1.5,1.5,0,0,1,.653,1.046,1.471,1.471,0,0,1-.365,1.173l-34.006,38.1,56.449,37.634a1.486,1.486,0,0,1,.127,2.367L117.49,305.8a1.441,1.441,0,0,1-.95.34" transform="translate(186.213 334.186)"/><path class="b" d="M128.3,307.468c-.269-.9-27.082-89.38-33.373-146.779l4.2-.461c6.248,57.013,32.946,145.114,33.218,146Z" transform="translate(198.848 332.53)"/><path class="b" d="M87.371,140.449h32.766v-2.117H87.371Z" transform="translate(183.01 286.666)"/><path class="b" d="M87.073,132.764h30.386v-2.117H87.073Z" transform="translate(182.386 270.568)"/><path class="b" d="M86.39,125.075h29.99v-2.111H86.39Z" transform="translate(180.956 254.475)"/><path class="b" d="M86.175,117.4h28.938v-2.117H86.175Z" transform="translate(180.505 238.378)"/><path class="b" d="M84.767,44.473h20.081V42.362H84.767Z" transform="translate(177.556 85.642)"/><path class="b" d="M84.853,47.976H104.8V45.859H84.853Z" transform="translate(177.736 92.967)"/><path class="b" d="M84.895,51.991h20.347v-2.12H84.895Z" transform="translate(177.824 101.371)"/><path class="b" d="M84.981,56.6h20.344V54.485H84.981Z" transform="translate(178.004 111.035)"/><path class="b" d="M84.811,61.036h21.666V58.925H84.811Z" transform="translate(177.648 120.336)"/><path class="b" d="M84.895,66.249H106.83V64.132H84.895Z" transform="translate(177.824 131.243)"/><path class="b" d="M84.766,71.966h23.519V69.855H84.766Z" transform="translate(177.554 143.23)"/><path class="b" d="M85.023,77.436h23.253V75.319H85.023Z" transform="translate(178.092 154.675)"/><path class="b" d="M85.065,83.016h23.782V80.9H85.065Z" transform="translate(178.18 166.364)"/><path class="b" d="M85.236,88.566h23.785V86.455H85.236Z" transform="translate(178.538 178.001)"/><path class="b" d="M85.621,95.091h24.838V92.974H85.621Z" transform="translate(179.345 191.657)"/><path class="b" d="M85.92,102.249h24.442v-2.117H85.92Z" transform="translate(179.971 206.65)"/><path class="b" d="M85.962,109.62h26.425v-2.111H85.962Z" transform="translate(180.059 222.102)"/><path class="b" d="M129.838,373.71l-37.2-27.4,28.557-23.782L89.7,298.6l26.475-23.829L88.2,251.022l23.433-22.907L86.59,206.591l22.3-20.2-23.671-17.67,21.694-17.284L85.284,134.553l20.431-17.435L84.823,100.834l19.218-13.409-18.5-14.969,17.24-12L84.4,49.738l19.827-10.132.956,1.885L88.806,49.853l17.9,10.426L89.06,72.586l18.5,14.969L88.382,100.933l20.675,16.12L88.627,134.495l21.7,16.934L88.682,168.675l23.532,17.553-22.43,20.316,24.983,21.469L91.344,250.9l28.041,23.829-26.37,23.733,31.572,23.977-28.523,23.77,35.028,25.8Z" transform="translate(176.779 79.87)"/><path class="b" d="M94.382,323.434l26.747-24.361-28.6-23.56,23.625-24.287L90.913,228.762l22.21-23L90.232,186.036l20.53-17.092-22.2-17.175,21.019-17.581-21.8-16.519,19.957-16.643L89.378,87.28l17.064-14.285L88.963,60.6l16.881-9.782a12.317,12.317,0,0,1-.056-1.786L87.075,39.35,86.1,41.237l16.946,8.752L85.058,60.415l17.927,12.71L85.968,87.372l18.364,13.74L84.389,117.759l21.8,16.513L85.2,151.831l22.189,17.175L86.961,186,110.05,205.91,87.868,228.883,113.1,251.347,89.418,275.68l28.48,23.47L91,323.672l32.887,22.838L95.425,371.775l1.4,1.591L127.3,346.312Z" transform="translate(176.765 79.332)"/><path class="b" d="M127.686,280.678h87.727v-4.224H127.686Z" transform="translate(267.456 575.983)"/><path class="b" d="M116.19,259.841h79.266V255.62H116.19Z" transform="translate(243.376 532.343)"/><path class="b" d="M107.594,239.981h68.169v-4.23H107.594Z" transform="translate(225.371 490.724)"/><path class="b" d="M63.527,162.834H192.475V146.983H63.527Z" transform="translate(133.066 304.786)"/><path class="b" d="M65.747,164.606H180.958V158H65.747Z" transform="translate(137.716 327.855)"/><path class="b" d="M65.406,166.367H182.727v-8.711H65.406Zm2.114-2.107H180.614v-4.493H67.52Z" transform="translate(137.001 327.143)"/><path class="b" d="M71.075,162.978a1.056,1.056,0,0,1-1.058-1.058V149.776a1.058,1.058,0,0,1,2.117,0V161.92a1.056,1.056,0,0,1-1.058,1.058" transform="translate(146.659 308.427)"/><path class="b" d="M75.8,162.978a1.056,1.056,0,0,1-1.058-1.058V149.776a1.057,1.057,0,0,1,2.114,0V161.92a1.055,1.055,0,0,1-1.055,1.058" transform="translate(156.557 308.427)"/><path class="b" d="M80.521,162.978a1.053,1.053,0,0,1-1.055-1.058V149.776a1.057,1.057,0,0,1,2.114,0V161.92a1.056,1.056,0,0,1-1.058,1.058" transform="translate(166.452 308.427)"/><path class="b" d="M85.249,162.978a1.056,1.056,0,0,1-1.058-1.058V149.776a1.058,1.058,0,0,1,2.117,0V161.92a1.058,1.058,0,0,1-1.058,1.058" transform="translate(176.348 308.427)"/><path class="b" d="M89.972,162.978a1.053,1.053,0,0,1-1.055-1.058V149.776a1.057,1.057,0,0,1,2.114,0V161.92a1.058,1.058,0,0,1-1.058,1.058" transform="translate(186.249 308.427)"/><path class="b" d="M94.7,162.978a1.057,1.057,0,0,1-1.061-1.058V149.776a1.058,1.058,0,0,1,2.117,0V161.92a1.055,1.055,0,0,1-1.055,1.058" transform="translate(196.139 308.427)"/><path class="b" d="M99.423,162.978a1.054,1.054,0,0,1-1.058-1.058V149.776a1.057,1.057,0,0,1,2.114,0V161.92a1.053,1.053,0,0,1-1.055,1.058" transform="translate(206.039 308.427)"/><path class="b" d="M65.747,168.133H180.958V152.276H65.747Z" transform="translate(137.716 315.874)"/><path class="b" d="M65.406,169.908H182.727V151.934H65.406Zm2.114-2.117H180.614v-13.74H67.52Z" transform="translate(137.001 315.157)"/><path class="b" d="M179.894,162.141l-2.132-2.129,1.968-1.977,2.138,2.145Zm-2.859,2.878-2.141-2.145,1.974-1.978,2.141,2.148Zm-5.185-5.18,1.97-1.981,2.148,2.154-1.978,1.968Zm-.718,5L168.99,162.7l1.962-1.981,2.143,2.151Zm-5.184-5.18,1.965-1.962,2.145,2.145-1.968,1.962Zm-.727,5.02-2.148-2.141,1.984-1.968,2.138,2.138Zm-5.9-.167-2.145-2.148,1.968-1.971,2.142,2.145Zm-5.9-.183-2.166-2.163,1.968-1.968,2.163,2.166Zm-5.929-.189-2.145-2.151,1.974-1.971,2.142,2.148Zm-5.9-.176-2.142-2.148,1.968-1.962,2.138,2.135Zm-5.9-.173-2.145-2.135,1.968-1.974,2.148,2.141Zm-5.908-.173-2.141-2.138L129.6,159.5l2.141,2.148Zm-5.9-.167-2.145-2.145,1.971-1.965,2.141,2.138ZM121,166.322l-2.141-2.148,1.977-1.978,2.138,2.148Zm-5.18-5.184,1.974-1.984,2.145,2.148-1.981,1.974Zm-.746,5.032-2.142-2.145,1.993-1.993,2.145,2.142Zm-5.18-5.18,1.993-2,2.142,2.145-1.993,1.99Zm-.721,5-2.148-2.138L109,161.884l2.135,2.141Zm-5.208-5.205,1.968-1.968,2.166,2.169-1.968,1.962Zm-.7,5.038-2.169-2.169,1.974-1.968,2.166,2.166Zm-5.205-5.205,1.968-1.974,2.148,2.141-1.971,1.974Zm-.721,5-2.142-2.138,1.968-1.968,2.141,2.138Zm-5.18-5.18,1.968-1.965,2.141,2.141-1.968,1.962Zm-.727,5-2.132-2.135,1.962-1.965,2.145,2.141Zm-5.177-5.174,1.968-1.965,2.145,2.138-1.968,1.978Zm-.721,5.02-2.145-2.154,1.971-1.965,2.145,2.138Zm-5.18-5.193,1.968-1.965,2.141,2.138-1.971,1.974Zm-.73,5.02-2.148-2.145L79.449,161l2.142,2.135Zm-5.18-5.18,1.974-1.981,2.145,2.142-1.977,1.981Zm-.721,5L71.57,162.8l1.968-1.968,2.138,2.145Zm-5.184-5.171,1.971-1.971,2.142,2.145L70.676,161.9Zm-.721,5.013-2.142-2.157,1.968-1.962,2.141,2.138Zm109.057-5.672-1.461-1.448h-3.164l-1.29,1.287-1.284-1.287h-3.5l-1.108,1.1-1.111-1.1h-1.789l2,2-1.977,1.977-2.142-2.148,1.841-1.829h-1.789l-.95.938-.938-.938h-1.8l1.844,1.829-1.971,1.971-2.163-2.16,1.649-1.64h-1.792l-.752.749-.749-.749h-1.792l1.646,1.64-1.965,1.974-2.148-2.145,1.473-1.47h-1.8l-.566.566-.572-.566H144.95l1.467,1.47-1.968,1.962-2.145-2.126,1.3-1.306h-1.789l-.405.4-.4-.4h-1.792l1.3,1.306-1.965,1.965L136.4,158.78l1.13-1.123h-1.8l-.229.229-.229-.229h-1.792l1.126,1.123-1.971,1.968-2.142-2.135.956-.956H129.66l-.059.053-.059-.053H127.75l.95.956-1.965,1.974-2.148-2.145.786-.786H122.01l.786.786-1.962,1.962-2.145-2.138.61-.61h-3.017l.619.61-1.977,1.974-2.141-2.141.443-.443h-2.68l.443.443L109,160.092l-2.169-2.16.269-.275h-2.333l.269.275-1.971,1.959-2.142-2.132.1-.1h-1.99l.1.1-1.968,1.965-2.073-2.067H93.161l-1.906,1.9-1.894-1.9h-2.29l-1.718,1.718-1.721-1.718H81l-1.55,1.547L77.9,157.657h-2.98l-1.383,1.38-1.38-1.38H68.847l-1.21,1.2-1.207-1.2H65.406v.777l1.34,1.331-1.34,1.337v3.061l1.507,1.5-.709.706h3.215l-.712-.706,1.968-1.962,2.138,2.138-.532.529h2.866l-.535-.529,1.965-1.965,2.145,2.138-.371.356h2.525l-.365-.356,1.974-1.977,2.145,2.135-.2.2h2.188l-.2-.2,1.971-1.962,2.138,2.145-.022.015h1.838l-.025-.015,1.971-1.977,2,1.993h2.089l1.82-1.813,1.817,1.813H104.5l1.628-1.618,1.625,1.618h2.829l1.451-1.451,1.461,1.451h3.16l1.3-1.3,1.306,1.3h3.469l1.139-1.136,1.139,1.136H126.8l-2.033-2.024,1.968-1.968,2.141,2.141-1.863,1.851h1.795l.962-.959.956.959h1.8l-1.863-1.851,1.971-1.974,2.148,2.145-1.693,1.68h1.792l.8-.789.789.789h1.789l-1.684-1.68,1.971-1.971,2.138,2.135-1.513,1.516h1.792l.619-.616.619.616h1.792l-1.516-1.516,1.974-1.962,2.138,2.141-1.337,1.337h1.792l.443-.439.449.439h1.795l-1.349-1.337,1.977-1.974,2.163,2.16-1.157,1.151h1.795l.257-.248.257.248h1.792l-1.151-1.151,1.962-1.962,2.145,2.145-.975.969h1.786l.087-.077.08.077h1.789l-.972-.969,1.965-1.974,2.145,2.132-.811.811h3.413l-.811-.811,1.974-1.965,2.148,2.148-.634.628h3.059l-.633-.628,1.96-1.974,2.145,2.154-.461.449h2.717l-.461-.449,1.965-1.981,2.148,2.148-.285.282h.969v-1.389l-1.931-1.934,1.931-1.94v-1.863l-1.591-1.585h-2.813Z" transform="translate(137 327.145)"/><path class="b" d="M70.016,167.6h2.117V152.4H70.016Z" transform="translate(146.658 316.142)"/><path class="b" d="M74.742,167.6h2.114V152.4H74.742Z" transform="translate(156.557 316.142)"/><path class="b" d="M79.466,167.6H81.58V152.4H79.466Z" transform="translate(166.452 316.142)"/><path class="b" d="M84.19,167.6h2.117V152.4H84.19Z" transform="translate(176.347 316.142)"/><path class="b" d="M88.917,167.6h2.114V152.4H88.917Z" transform="translate(186.249 316.142)"/><path class="b" d="M93.638,167.6h2.117V152.4H93.638Z" transform="translate(196.138 316.142)"/><path class="b" d="M98.365,167.6h2.114V152.4H98.365Z" transform="translate(206.039 316.142)"/><path class="b" d="M67.1,169.054l-1.566-1.417,14.136-15.461,1.563,1.417Z" transform="translate(137.276 315.664)"/><path class="b" d="M79.529,169.466,65.662,153.486l1.591-1.39L81.126,168.08Z" transform="translate(137.537 315.496)"/><path class="b" d="M71.668,169.054l-1.563-1.417,14.139-15.461,1.56,1.417Z" transform="translate(146.845 315.664)"/><path class="b" d="M84.1,169.466,70.229,153.486l1.594-1.39L85.7,168.08Z" transform="translate(147.104 315.496)"/><path class="b" d="M76.4,169.054l-1.56-1.417,14.136-15.461,1.56,1.417Z" transform="translate(156.772 315.664)"/><path class="b" d="M88.839,169.466l-13.87-15.981,1.591-1.39L90.435,168.08Z" transform="translate(157.031 315.496)"/><path class="b" d="M81.272,169.054l-1.56-1.417,14.136-15.461,1.563,1.417Z" transform="translate(166.967 315.664)"/><path class="b" d="M93.706,169.466l-13.87-15.981,1.594-1.39L95.3,168.08Z" transform="translate(167.226 315.496)"/><path class="b" d="M85.757,169.054l-1.563-1.417,14.136-15.461,1.563,1.417Z" transform="translate(176.356 315.664)"/><path class="b" d="M98.188,169.466l-13.87-15.981,1.591-1.39L99.785,168.08Z" transform="translate(176.615 315.496)"/><path class="b" d="M90.493,169.054l-1.56-1.417,14.136-15.461,1.56,1.417Z" transform="translate(186.284 315.664)"/><path class="b" d="M102.927,169.466l-13.87-15.981,1.591-1.39,13.873,15.984Z" transform="translate(186.542 315.496)"/><path class="b" d="M95.1,169.054l-1.56-1.417,14.133-15.461,1.563,1.417Z" transform="translate(195.943 315.664)"/><path class="b" d="M107.538,169.466l-13.87-15.981,1.594-1.39,13.873,15.984Z" transform="translate(196.199 315.496)"/><path class="b" d="M99.587,169.054l-1.56-1.417,14.132-15.461,1.56,1.417Z" transform="translate(205.332 315.664)"/><path class="b" d="M112.02,169.466,98.15,153.486l1.594-1.39,13.871,15.984Z" transform="translate(205.589 315.496)"/><path class="b" d="M47.987,238.592h225.13V211.105H47.987Z" transform="translate(100.515 439.1)"/><path class="b" d="M45.394,243.986l8.78-25.364H277.84l10.246,25.364Z" transform="translate(95.082 454.845)"/><path class="b" d="M279.552,218.277H54.424l-9.51,27.49H290.656Zm-1.424,2.12,9.392,23.25H47.879l8.052-23.25Z" transform="translate(94.079 454.123)"/><path class="b" d="M44.914,229.276h63.019v-2.117H44.914Z" transform="translate(94.078 472.727)"/><path class="b" d="M44.914,245.764h.944l-.7-.7Zm229.393-7.43-6.827-6.821,6.353-6.35,6.824,6.824Zm-16.188-.458-6.839-6.833,6.366-6.363,6.836,6.833Zm-7.86,7.86-6.836-6.833,6.363-6.359,6.833,6.83ZM235.1,230.575l6.366-6.356,6.821,6.824-6.359,6.366Zm-1.021,14.672-6.824-6.818,6.35-6.35,6.824,6.824ZM218.923,230.1l6.347-6.347,6.833,6.824-6.35,6.356Zm-1.03,14.687-6.832-6.824,6.359-6.375,6.836,6.842ZM202.67,229.56l6.359-6.353,6.894,6.892-6.362,6.356Zm-.969,14.752-6.895-6.892,6.36-6.356,6.9,6.9ZM186.473,229.09l6.363-6.353,6.836,6.824-6.366,6.36Zm-1.027,14.69-6.827-6.83,6.356-6.363,6.833,6.833Zm-15.151-15.151,6.356-6.369,6.824,6.83-6.353,6.363ZM169.26,243.31l-6.824-6.833,6.36-6.356,6.824,6.83ZM154.1,228.149l6.363-6.359,6.836,6.839-6.359,6.356Zm-1.015,14.687-6.839-6.827,6.363-6.356,6.836,6.824Zm-15.161-15.151,6.356-6.356,6.824,6.821-6.356,6.36Zm-1.031,14.684-6.827-6.836,6.356-6.35,6.827,6.827Zm-15.158-15.151,6.363-6.366,6.83,6.833-6.366,6.356Zm-1.089,14.749-6.83-6.836,6.421-6.418,6.83,6.821ZM105.48,226.8l6.425-6.424,6.83,6.839-6.421,6.421Zm-1.027,14.69-6.833-6.83,6.366-6.356,6.83,6.824ZM89.3,226.342l6.363-6.359,6.824,6.821-6.36,6.369Zm-1.031,14.69-6.833-6.83,6.359-6.363,6.827,6.824Zm-15.226-15.22,6.363-6.366,6.895,6.895-6.363,6.353Zm-.956,14.737-6.892-6.889,6.35-6.356,6.892,6.9ZM56.863,225.327l6.35-6.347,6.827,6.833-6.347,6.344ZM288.088,239.41l-2.033-5.029-2.4-2.4,1.021-1.018-.86-2.148-1.659,1.665-6.824-6.833,4.555-4.546-.334-.829h-1.835l-3.884,3.887-3.878-3.887h-3l5.379,5.375-6.347,6.353-6.836-6.83,4.9-4.9h-3.008l-3.395,3.395-3.392-3.395h-2.993l4.89,4.9-6.366,6.375-6.824-6.836,4.435-4.438H244.4l-2.94,2.943-2.94-2.943h-3l4.432,4.438-6.357,6.369-6.833-6.839,3.967-3.967H227.73l-2.46,2.463-2.466-2.463h-2.993l3.961,3.967-6.353,6.35-6.891-6.9,3.42-3.42h-3L209.03,220.2l-1.925-1.922h-3l3.423,3.42-6.363,6.369-6.833-6.833,2.952-2.955h-2.993l-1.458,1.455-1.454-1.455h-3l2.949,2.955-6.36,6.366-6.821-6.827,2.485-2.494h-2.992l-1,.99-.984-.99h-3l2.485,2.494-6.36,6.353-6.833-6.827,2.012-2.021h-3l-.514.52-.508-.52h-3l2.018,2.021-6.359,6.356-6.827-6.83,1.544-1.547h-3l-.046.053-.049-.053h-3l1.547,1.547-6.359,6.356-6.83-6.827,1.074-1.077h-5.143l1.077,1.077-6.363,6.36-6.83-6.836.6-.6h-4.2l.6.6-6.421,6.434-6.827-6.827.195-.207H93.964l.192.207-6.363,6.356-6.561-6.564H77.575L71.544,224.3l-6.025-6.025H60.9l-5.549,5.549-2.117-2.114-.771,2.213,1.4,1.4L51,228.186l-1.588,4.583,5.945-5.954,6.839,6.845-6.363,6.363L49.2,233.379l-.771,2.228,5.908,5.914-4.249,4.243h3.008l2.739-2.745,2.742,2.745h3l-4.243-4.243,6.36-6.363,6.895,6.892-3.707,3.714h2.993l2.213-2.216,2.216,2.216h3l-3.711-3.714,6.35-6.344,6.83,6.817-3.237,3.24h3l1.739-1.739,1.727,1.739h3l-3.24-3.24,6.366-6.356,6.827,6.83-2.764,2.767h2.993l1.272-1.278,1.272,1.278h2.993L105.95,243l6.363-6.372,6.827,6.842-2.293,2.3h3l.8-.8.8.8h2.993l-2.293-2.3,6.418-6.421,6.83,6.83-1.9,1.888h3l.4-.4.393.4h3l-1.894-1.888,6.359-6.375,6.836,6.842-1.417,1.42H156l-1.42-1.42,6.356-6.363,6.827,6.824-.956.959h4.911l-.956-.959,6.359-6.36,6.833,6.842-.483.477h3.955l-.48-.477,6.359-6.363,6.845,6.839h3.1l6.313-6.31,6.3,6.31h4.054l5.833-5.843,5.833,5.843h4.986l5.354-5.363,5.363,5.363h5.936l4.9-4.89,4.893,4.89H266l-6.381-6.391L265.986,233l6.827,6.83-5.932,5.929h2.989l4.438-4.438,4.428,4.438h3l-5.936-5.929,6.353-6.35Zm.517,1.281-5.066,5.072h3l2.931-2.931Z" transform="translate(94.078 454.123)"/><path class="b" d="M55.706,228.491a1.053,1.053,0,0,1-1.058-1.055v-15a1.058,1.058,0,0,1,2.117,0v15a1.055,1.055,0,0,1-1.058,1.055" transform="translate(114.466 439.684)"/><path class="b" d="M63.088,228.491a1.053,1.053,0,0,1-1.055-1.055v-15a1.057,1.057,0,0,1,2.114,0v15a1.053,1.053,0,0,1-1.058,1.055" transform="translate(129.936 439.684)"/><path class="b" d="M70.477,228.491a1.055,1.055,0,0,1-1.058-1.055v-15a1.057,1.057,0,0,1,2.114,0v15a1.051,1.051,0,0,1-1.055,1.055" transform="translate(145.407 439.684)"/><path class="b" d="M77.86,228.491a1.053,1.053,0,0,1-1.055-1.055v-15a1.058,1.058,0,0,1,2.117,0v15a1.054,1.054,0,0,1-1.061,1.055" transform="translate(160.878 439.684)"/><path class="b" d="M85.249,228.491a1.053,1.053,0,0,1-1.058-1.055v-15a1.058,1.058,0,0,1,2.117,0v15a1.055,1.055,0,0,1-1.058,1.055" transform="translate(176.348 439.684)"/><path class="b" d="M92.638,228.491a1.058,1.058,0,0,1-1.061-1.055v-15a1.058,1.058,0,0,1,2.117,0v15a1.053,1.053,0,0,1-1.055,1.055" transform="translate(191.819 439.684)"/><path class="b" d="M100.022,228.491a1.056,1.056,0,0,1-1.061-1.055v-15a1.06,1.06,0,0,1,2.12,0v15a1.055,1.055,0,0,1-1.058,1.055" transform="translate(207.287 439.684)"/><path class="b" d="M107.4,228.491a1.053,1.053,0,0,1-1.055-1.055v-15a1.057,1.057,0,0,1,2.114,0v15a1.055,1.055,0,0,1-1.058,1.055" transform="translate(222.763 439.684)"/><path class="b" d="M114.791,228.491a1.055,1.055,0,0,1-1.058-1.055v-15a1.057,1.057,0,0,1,2.114,0v15a1.051,1.051,0,0,1-1.055,1.055" transform="translate(238.23 439.684)"/><path class="b" d="M48.329,221.447H271.345V207.236H48.329Z" transform="translate(101.231 430.996)"/><path class="b" d="M47.987,223.216h225.13V206.892H47.987Zm2.114-2.111H271v-12.1H50.1Z" transform="translate(100.515 430.275)"/><path class="b" d="M54.647,222.114h2.117v-15H54.647Z" transform="translate(114.465 430.74)"/><path class="b" d="M62.033,222.114h2.114v-15H62.033Z" transform="translate(129.936 430.74)"/><path class="b" d="M69.419,222.114h2.114v-15H69.419Z" transform="translate(145.407 430.74)"/><path class="b" d="M76.8,222.114h2.117v-15H76.8Z" transform="translate(160.876 430.74)"/><path class="b" d="M84.19,222.114h2.117v-15H84.19Z" transform="translate(176.347 430.74)"/><path class="b" d="M91.576,222.114h2.117v-15H91.576Z" transform="translate(191.818 430.74)"/><path class="b" d="M98.961,222.114h2.12v-15h-2.12Z" transform="translate(207.288 430.74)"/><path class="b" d="M106.348,222.114h2.114v-15h-2.114Z" transform="translate(222.761 430.74)"/><path class="b" d="M113.733,222.114h2.114v-15h-2.114Z" transform="translate(238.23 430.74)"/><path class="b" d="M66.317,250.03l-2.036-.572c2.426-8.643,5.979-30.324,6.013-30.56l2.089.356c-.152.894-3.608,22.009-6.066,30.776" transform="translate(134.644 455.423)"/><path class="b" d="M82.864,271.873l-1.575-1.4L99.8,249.644,84.037,223.03l12.657-23.953L87.03,176.629l8.145-25.085-6.264-21.957,4.707-22.432L89.762,87.473l2.067-.412,3.946,20.115-.043.21L91.1,129.5l6.288,22.074-8.1,24.949,9.757,22.653-.241.449-12.341,23.34,15.95,26.93Z" transform="translate(170.271 179.272)"/><path class="b" d="M99.767,272.748l-18.122-24.89,15.117-23.875L84.105,199.2l11.4-21.489-9.216-27.053,7.149-19.948-5.793-23.174,4.008-20.044,2.077.415-3.921,19.586,5.833,23.331-7.118,19.852L97.8,177.891,86.491,199.213l12.7,24.887-15,23.683,17.284,23.733Z" transform="translate(171.017 180.167)"/><path class="b" d="M78.118,52.025h41.109V34.76H78.118Z" transform="translate(163.629 69.718)"/><path class="b" d="M78.118,43.138h41.109V25.882H78.118Z" transform="translate(163.629 51.122)"/><path class="b" d="M76.3,59.648h52.377V27.25H76.3Z" transform="translate(159.816 53.988)"/><path class="b" d="M81.144,43.355,91.8,18.824l10.67,24.531Z" transform="translate(169.966 36.338)"/><path class="b" d="M91.476,53.075H83.263l4.1-43.3Z" transform="translate(174.406 17.376)"/><path class="b" d="M84.2,45.4h2.436V1H84.2Z" transform="translate(176.36 -0.999)"/><path class="b" d="M78.983,50.216h2.779V28.81H78.983Z" transform="translate(165.441 57.255)"/><path class="b" d="M81.6,50.216h2.776V28.81H81.6Z" transform="translate(170.918 57.255)"/><path class="b" d="M84.211,50.216H86.99V28.81H84.211Z" transform="translate(176.391 57.255)"/><path class="b" d="M86.826,50.216H89.6V28.81H86.826Z" transform="translate(181.869 57.255)"/><path class="b" d="M89.439,50.216h2.782V28.81H89.439Z" transform="translate(187.342 57.255)"/></g></g><g transform="translate(279.624 499.378)"><path class="b" d="M315.107,510.434,22.84,220.034,184.394,55.66,640.073,510.434Z" transform="translate(-19.233 69.482)"/><g transform="translate(0 0)"><path class="d" d="M22.52,334.308,312.259,44.568H637.973L187.234,495.3Z" transform="translate(-22.52 -44.568)"/></g></g></g></g></svg>